<svg width="12" height="12" viewBox="0 0 12 12" fill="none" xmlns="http://www.w3.org/2000/svg">
<path d="M11.3698 0.945419L11.2998 0.210419L10.5998 0.443752C9.40009 0.86057 8.119 0.988479 6.8606 0.817085C5.53827 0.611875 4.1848 0.794228 2.96393 1.34209C2.31671 1.61768 1.74871 2.05079 1.31163 2.60197C0.874547 3.15316 0.582279 3.80492 0.461432 4.49792C0.304737 5.39315 0.383127 6.31373 0.688933 7.16959C0.885839 6.72514 1.11593 6.29615 1.37727 5.88625C1.97005 5.01407 2.79143 4.32186 3.75143 3.88542C4.67627 3.46316 5.68716 3.26338 6.7031 3.30209C5.73595 3.44996 4.81018 3.79762 3.98477 4.32292C3.58663 4.57308 3.22202 4.873 2.89977 5.21542C2.59157 5.55767 2.31983 5.93107 2.08893 6.32959C1.65524 7.16259 1.34665 8.05495 1.1731 8.97792C0.986032 9.90386 0.884493 10.845 0.869766 11.7896H2.03643C2.09127 10.9425 2.20628 10.1004 2.3806 9.26959C3.18994 9.70662 4.09755 9.92951 5.01727 9.91709C5.87504 9.9165 6.724 9.74393 7.51393 9.40958C11.9531 7.51375 11.3698 1.20792 11.3698 0.945419Z" fill="#0A7047"/>
</svg>
